<?xml version="1.0" encoding="utf-8"?>
<!-- Generator: Adobe Illustrator 17.1.0, SVG Export Plug-In . SVG Version: 6.00 Build 0)  -->
<!DOCTYPE svg PUBLIC "-//W3C//DTD SVG 1.1//EN" "http://www.w3.org/Graphics/SVG/1.1/DTD/svg11.dtd">
<svg version="1.1" id="Layer_1" xmlns="http://www.w3.org/2000/svg" xmlns:xlink="http://www.w3.org/1999/xlink" x="0px" y="0px"
	 viewBox="0 0 279.184 55.406" enable-background="new 0 0 279.184 55.406" xml:space="preserve">
<rect x="0" y="2.77" fill="#584545" width="53.153" height="52.636"/>
<path fill="#FADF8D" d="M37.893,52.173h-7.63V32.645h-5.044v-6.984h5.044c0,0-1.94-12.674,5.302-14.485c0,0,5.432-1.552,9.958-0.776
	v6.725c0,0-8.924-1.293-7.501,3.88v4.397h7.501v7.113h-7.63V52.173z"/>
<polyline fill="#FADF8D" points="26.577,16.928 19.913,15.95 22.436,11.772 "/>
<rect x="78.567" y="2.09" fill="#584545" width="53.153" height="52.636"/>
<polygon fill="#FADF8D" points="96.561,15.093 96.561,41.723 119.51,28.408 "/>
<polyline fill="#FADF8D" points="91.517,11.58 84.854,10.602 87.377,6.424 "/>
<rect x="154.454" y="2.09" fill="#584545" width="53.153" height="52.636"/>
<g>
	<path fill="#FADF8D" d="M162.437,41.403c5.037,3.263,10.547,4.192,16.31,3.116c10.633-1.986,18.275-11.351,18.268-22.156
		c-0.001-0.799,0.235-1.311,0.839-1.847c1.083-0.961,2.036-2.068,3.044-3.114c-0.073-0.072-0.147-0.144-0.22-0.216
		c-1.205,0.336-2.41,0.672-3.616,1.009c1.261-1.227,2.281-2.487,2.787-4.201c-1.334,0.523-2.565,1.021-3.808,1.488
		c-0.746,0.28-1.329,0.175-2.03-0.405c-2.415-1.996-5.216-2.342-8.082-1.187c-2.804,1.13-4.468,3.297-4.839,6.337
		c-0.107,0.877-0.016,1.779-0.016,2.81c-6.629-0.52-11.949-3.323-16.293-8.373c-1.932,4.112-1.208,7.559,1.878,10.691
		c-0.982-0.285-1.964-0.571-3.045-0.885c0.222,3.926,2.2,6.423,5.688,7.968c-0.921,0-1.841,0-2.879,0
		c1.197,3.409,3.647,5.123,7.184,5.688C170.145,40.638,166.463,41.555,162.437,41.403z"/>
</g>
<polyline fill="#FADF8D" points="174.96,11.58 168.297,10.602 170.82,6.424 "/>
<rect x="226.03" y="2.77" fill="#584545" width="53.153" height="52.636"/>
<g>
	<path fill="#584545" d="M254.411,49.848c-4.929,0-9.859,0.024-14.788-0.01c-2.475-0.017-4.825-1.918-5.229-4.403
		c-0.09-0.554-0.147-1.12-0.147-1.681c-0.009-9.609-0.027-19.218,0.007-28.827c0.009-2.526,1.649-4.583,4.185-5.182
		c0.478-0.113,0.984-0.148,1.477-0.148c9.626-0.008,19.252-0.014,28.877-0.002c3.227,0.004,5.597,2.345,5.595,5.597
		c-0.005,9.676-0.003,19.351,0.001,29.027c0,1.18-0.25,2.284-0.927,3.266c-0.795,1.153-1.84,1.958-3.242,2.219
		c-0.45,0.084-0.912,0.139-1.369,0.14c-4.813,0.01-9.626,0.006-14.439,0.006C254.411,49.849,254.411,49.848,254.411,49.848z
		 M237.734,24.955c0,0.194,0,0.358,0,0.522c0,4.847-0.002,9.695,0.001,14.542c0.002,3.454,2.899,6.351,6.348,6.351
		c6.73,0.001,13.459,0.001,20.189-0.003c0.33,0,0.663-0.027,0.99-0.071c3.192-0.424,5.558-3.119,5.559-6.327
		c0.001-4.814,0-9.628,0-14.442c0-0.181,0-0.362,0-0.563c-3.253,0-6.468,0-9.713,0c2.943,4.419,1.356,9.028-1.476,11.381
		c-2.819,2.343-6.94,2.738-10.283,0.356c-1.539-1.097-2.598-2.563-3.142-4.365c-0.789-2.616-0.345-5.067,1.214-7.383
		C244.145,24.955,240.959,24.955,237.734,24.955z M270.821,23.971c0-1.65,0.046-3.246-0.01-4.839
		c-0.115-3.284-3.014-6.047-6.29-6.048c-5.878-0.001-11.757,0-17.635,0c-0.176,0-0.351,0-0.58,0c0,2.774,0,5.479,0,8.179
		c-0.414,0-0.774,0-1.186,0c0-2.733,0-5.438,0-8.147c-0.377,0-0.701,0-1.082,0c0,2.734,0,5.438,0,8.132c-0.43,0-0.8,0-1.205,0
		c0-2.688,0-5.331,0-7.977c-0.977,0.094-1.021,0.14-1.021,1.011c0,2.148,0,4.296,0,6.444c0,0.176,0,0.353,0,0.53
		c-0.467,0-0.857,0-1.303,0c0-2.337,0-4.638,0-7.03c-1.439,1.046-2.322,2.35-2.645,3.988c-0.137,0.692-0.114,1.42-0.125,2.132
		c-0.018,1.193-0.005,2.387-0.005,3.594c0.117,0.014,0.18,0.028,0.244,0.028c3.347,0.002,6.694,0.005,10.041-0.006
		c0.159-0.001,0.352-0.089,0.471-0.2c2.989-2.781,7.365-3.148,10.623-0.697c0.965,0.726,1.868,0.935,2.987,0.919
		C264.98,23.943,267.86,23.971,270.821,23.971z M247.701,29.823c-0.071,3.642,2.861,6.672,6.594,6.627
		c3.722-0.045,6.53-2.89,6.533-6.562c0.003-3.728-2.897-6.547-6.56-6.581C250.649,23.272,247.701,26.227,247.701,29.823z"/>
	<path fill="#FADF8D" d="M237.734,24.955c3.224,0,6.411,0,9.688,0c-1.559,2.316-2.003,4.767-1.214,7.383
		c0.543,1.802,1.602,3.268,3.142,4.365c3.343,2.382,7.464,1.986,10.283-0.356c2.832-2.353,4.42-6.962,1.476-11.381
		c3.244,0,6.46,0,9.713,0c0,0.201,0,0.382,0,0.563c0,4.814,0.001,9.628,0,14.442c-0.001,3.208-2.367,5.904-5.559,6.327
		c-0.328,0.043-0.66,0.07-0.99,0.071c-6.73,0.004-13.459,0.003-20.189,0.003c-3.449,0-6.347-2.898-6.348-6.351
		c-0.002-4.847-0.001-9.695-0.001-14.542C237.734,25.313,237.734,25.149,237.734,24.955z"/>
	<path fill="#FADF8D" d="M270.821,23.971c-2.961,0-5.841-0.027-8.72,0.014c-1.119,0.016-2.022-0.193-2.987-0.919
		c-3.259-2.451-7.634-2.084-10.623,0.697c-0.119,0.111-0.312,0.199-0.471,0.2c-3.347,0.011-6.694,0.008-10.041,0.006
		c-0.063,0-0.126-0.014-0.244-0.028c0-1.207-0.013-2.401,0.005-3.594c0.011-0.712-0.012-1.44,0.125-2.132
		c0.324-1.638,1.206-2.942,2.645-3.988c0,2.392,0,4.693,0,7.03c0.446,0,0.836,0,1.303,0c0-0.177,0-0.353,0-0.53
		c0-2.148,0-4.296,0-6.444c0-0.872,0.044-0.917,1.021-1.011c0,2.646,0,5.289,0,7.977c0.405,0,0.775,0,1.205,0
		c0-2.694,0-5.397,0-8.132c0.381,0,0.704,0,1.082,0c0,2.709,0,5.414,0,8.147c0.412,0,0.771,0,1.186,0c0-2.7,0-5.404,0-8.179
		c0.229,0,0.404,0,0.58,0c5.878,0,11.757-0.001,17.635,0c3.276,0.001,6.175,2.763,6.29,6.048
		C270.867,20.725,270.821,22.321,270.821,23.971z M262.224,18.663c0,0.549-0.002,1.097,0.001,1.646
		c0.004,0.721,0.4,1.187,1.105,1.204c1.13,0.028,2.261,0.027,3.391,0c0.619-0.015,1.079-0.488,1.086-1.075
		c0.014-1.163,0.019-2.327-0.002-3.491c-0.011-0.638-0.453-1.051-1.082-1.055c-1.147-0.008-2.294-0.009-3.441,0.001
		c-0.621,0.005-1.049,0.45-1.056,1.076C262.219,17.532,262.224,18.098,262.224,18.663z"/>
	<path fill="#FADF8D" d="M247.701,29.823c0-3.596,2.948-6.551,6.567-6.517c3.663,0.035,6.562,2.854,6.56,6.581
		c-0.003,3.673-2.81,6.517-6.533,6.562C250.563,36.495,247.63,33.465,247.701,29.823z M254.269,25.087
		c-2.57,0.073-4.783,2.008-4.763,4.795c0.019,2.695,1.979,4.776,4.781,4.766c2.817-0.01,4.723-2.077,4.764-4.734
		C259.092,27.144,256.892,25.152,254.269,25.087z"/>
	<path fill="#584545" d="M262.224,18.663c0-0.565-0.005-1.13,0.001-1.696c0.007-0.626,0.435-1.071,1.056-1.076
		c1.147-0.01,2.294-0.009,3.441-0.001c0.629,0.004,1.071,0.418,1.082,1.055c0.021,1.163,0.016,2.327,0.002,3.491
		c-0.007,0.588-0.467,1.061-1.086,1.075c-1.13,0.027-2.261,0.028-3.391,0c-0.706-0.017-1.101-0.483-1.105-1.204
		C262.221,19.76,262.224,19.211,262.224,18.663z"/>
	<path fill="#584545" d="M254.269,25.087c2.623,0.065,4.824,2.057,4.781,4.826c-0.041,2.657-1.946,4.724-4.764,4.734
		c-2.802,0.01-4.762-2.07-4.781-4.766C249.486,27.095,251.699,25.16,254.269,25.087z"/>
</g>
<polyline fill="#FADF8D" points="238.566,12.005 231.903,11.027 234.426,6.849 "/>
</svg>
