<?xml version="1.0" encoding="utf-8"?>
<!-- Generator: Adobe Illustrator 17.1.0, SVG Export Plug-In . SVG Version: 6.00 Build 0)  -->
<!DOCTYPE svg PUBLIC "-//W3C//DTD SVG 1.1//EN" "http://www.w3.org/Graphics/SVG/1.1/DTD/svg11.dtd">
<svg version="1.1" id="Layer_1" xmlns="http://www.w3.org/2000/svg" xmlns:xlink="http://www.w3.org/1999/xlink" x="0px" y="0px"
	 viewBox="0 0 144 144" enable-background="new 0 0 144 144" xml:space="preserve">
<rect x="-1.778" fill="#594646" width="145.414" height="144"/>
<g>
	<path fill="#594646" d="M75.866,128.795c-13.485,0-26.972,0.066-40.457-0.027c-6.771-0.046-13.2-5.247-14.305-12.046
		c-0.246-1.516-0.402-3.064-0.402-4.599c-0.025-26.288-0.074-52.576,0.019-78.864c0.025-6.911,4.511-12.538,11.449-14.177
		c1.308-0.309,2.692-0.405,4.041-0.405c26.335-0.022,52.669-0.038,79.001-0.005c8.828,0.011,15.312,6.415,15.307,15.312
		c-0.014,26.471-0.008,52.94,0.003,79.411c0,3.228-0.684,6.249-2.536,8.935c-2.175,3.154-5.034,5.357-8.869,6.071
		c-1.231,0.23-2.495,0.38-3.745,0.383c-13.167,0.027-26.335,0.016-39.502,0.016C75.866,128.797,75.866,128.795,75.866,128.795z
		 M30.241,60.693c0,0.531,0,0.979,0,1.428c0,13.26-0.005,26.523,0.003,39.784c0.005,9.449,7.931,17.375,17.367,17.375
		c18.412,0.003,36.821,0.003,55.232-0.008c0.903,0,1.814-0.074,2.708-0.194c8.733-1.16,15.205-8.533,15.208-17.309
		c0.003-13.17,0-26.34,0-39.51c0-0.495,0-0.99,0-1.54c-8.899,0-17.695,0-26.573,0c8.051,12.089,3.71,24.699-4.038,31.136
		c-7.712,6.41-18.986,7.491-28.132,0.974c-4.21-3.001-7.108-7.012-8.596-11.942c-2.159-7.157-0.944-13.862,3.321-20.198
		C47.78,60.693,39.064,60.693,30.241,60.693z M120.76,58.001c0-4.514,0.126-8.88-0.027-13.238
		c-0.315-8.984-8.246-16.543-17.208-16.546c-16.081-0.003-32.164,0-48.245,0c-0.481,0-0.96,0-1.587,0c0,7.589,0,14.989,0,22.376
		c-1.133,0-2.117,0-3.245,0c0-7.477,0-14.877,0-22.288c-1.031,0-1.918,0-2.96,0c0,7.48,0,14.877,0,22.247c-1.176,0-2.189,0-3.297,0
		c0-7.354,0-14.584,0-21.823c-2.673,0.257-2.793,0.383-2.793,2.766c0,5.876,0,11.753,0,17.629c0,0.481,0,0.966,0,1.45
		c-1.278,0-2.345,0-3.565,0c0-6.393,0-12.689,0-19.232c-3.937,2.862-6.352,6.429-7.236,10.91c-0.375,1.893-0.312,3.885-0.342,5.833
		c-0.049,3.264-0.014,6.53-0.014,9.832c0.32,0.038,0.492,0.077,0.668,0.077c9.157,0.005,18.313,0.014,27.47-0.016
		c0.435-0.003,0.963-0.243,1.289-0.547c8.177-7.608,20.149-8.612,29.062-1.907c2.64,1.986,5.11,2.558,8.172,2.514
		C104.78,57.924,112.659,58.001,120.76,58.001z M57.509,74.011c-0.194,9.964,7.827,18.253,18.04,18.13
		c10.183-0.123,17.865-7.906,17.873-17.952c0.008-10.199-7.926-17.911-17.947-18.004C65.574,56.089,57.509,64.173,57.509,74.011z"/>
	<path fill="#FADE8D" d="M30.241,60.693c8.82,0,17.539,0,26.504,0c-4.265,6.336-5.48,13.041-3.321,20.198
		c1.486,4.93,4.383,8.941,8.596,11.942c9.146,6.517,20.42,5.433,28.132-0.974c7.748-6.437,12.092-19.046,4.038-31.136
		c8.875,0,17.673,0,26.573,0c0,0.55,0,1.045,0,1.54c0,13.17,0.003,26.34,0,39.51c-0.003,8.776-6.476,16.152-15.208,17.309
		c-0.897,0.118-1.806,0.192-2.708,0.194c-18.412,0.011-36.821,0.008-55.232,0.008c-9.436,0-17.364-7.928-17.367-17.375
		c-0.005-13.26-0.003-26.523-0.003-39.784C30.241,61.672,30.241,61.224,30.241,60.693z"/>
	<path fill="#FADE8D" d="M120.76,58.001c-8.101,0-15.98-0.074-23.856,0.038c-3.061,0.044-5.532-0.528-8.172-2.514
		c-8.916-6.705-20.885-5.701-29.062,1.907c-0.326,0.304-0.854,0.544-1.289,0.547c-9.157,0.03-18.313,0.022-27.47,0.016
		c-0.172,0-0.345-0.038-0.668-0.077c0-3.302-0.036-6.569,0.014-9.832c0.03-1.948-0.033-3.94,0.342-5.833
		c0.886-4.481,3.299-8.049,7.236-10.91c0,6.544,0,12.839,0,19.232c1.22,0,2.287,0,3.565,0c0-0.484,0-0.966,0-1.45
		c0-5.876,0-11.753,0-17.629c0-2.386,0.12-2.509,2.793-2.766c0,7.239,0,14.469,0,21.823c1.108,0,2.12,0,3.297,0
		c0-7.37,0-14.765,0-22.247c1.042,0,1.926,0,2.96,0c0,7.411,0,14.811,0,22.288c1.127,0,2.109,0,3.245,0c0-7.387,0-14.784,0-22.376
		c0.627,0,1.105,0,1.587,0c16.081,0,32.164-0.003,48.245,0c8.962,0.003,16.893,7.559,17.208,16.546
		C120.886,49.121,120.76,53.487,120.76,58.001z M97.24,43.48c0,1.502-0.006,3.001,0.003,4.503c0.011,1.972,1.094,3.247,3.023,3.294
		c3.091,0.077,6.186,0.074,9.277,0c1.693-0.041,2.952-1.335,2.971-2.941c0.038-3.182,0.052-6.366-0.006-9.551
		c-0.03-1.745-1.239-2.875-2.96-2.886c-3.138-0.022-6.276-0.025-9.414,0.003c-1.699,0.014-2.87,1.231-2.889,2.944
		C97.227,40.385,97.24,41.934,97.24,43.48z"/>
	<path fill="#FADE8D" d="M57.509,74.011c0-9.838,8.065-17.922,17.966-17.829c10.021,0.096,17.952,7.808,17.947,18.004
		c-0.008,10.048-7.688,17.829-17.873,17.952C65.338,92.264,57.314,83.974,57.509,74.011z M75.477,61.054
		c-7.031,0.2-13.085,5.493-13.03,13.118c0.052,7.373,5.414,13.066,13.08,13.039c7.707-0.027,12.921-5.682,13.033-12.951
		C88.672,66.682,82.653,61.232,75.477,61.054z"/>
	<path fill="#594646" d="M97.24,43.48c0-1.546-0.014-3.091,0.003-4.64c0.019-1.713,1.19-2.93,2.889-2.944
		c3.138-0.027,6.276-0.025,9.414-0.003c1.721,0.011,2.93,1.144,2.96,2.886c0.057,3.182,0.044,6.366,0.006,9.551
		c-0.019,1.609-1.278,2.903-2.971,2.941c-3.091,0.074-6.186,0.077-9.277,0c-1.931-0.047-3.012-1.321-3.023-3.294
		C97.232,46.481,97.24,44.979,97.24,43.48z"/>
	<path fill="#594646" d="M75.477,61.054c7.176,0.178,13.197,5.627,13.08,13.203c-0.112,7.269-5.324,12.924-13.033,12.951
		c-7.666,0.027-13.028-5.663-13.08-13.039C62.392,66.548,68.446,61.254,75.477,61.054z"/>
</g>
<polyline fill="#FADE8D" points="32.517,25.265 14.289,22.589 21.191,11.159 "/>
</svg>
