<?xml version="1.0" encoding="utf-8"?>
<!-- Generator: Adobe Illustrator 17.1.0, SVG Export Plug-In . SVG Version: 6.00 Build 0)  -->
<!DOCTYPE svg PUBLIC "-//W3C//DTD SVG 1.1//EN" "http://www.w3.org/Graphics/SVG/1.1/DTD/svg11.dtd">
<svg version="1.1" id="Layer_1" xmlns="http://www.w3.org/2000/svg" xmlns:xlink="http://www.w3.org/1999/xlink" x="0px" y="0px"
	 viewBox="0 0 144 144" enable-background="new 0 0 144 144" xml:space="preserve">
<rect fill="#594646" width="145.133" height="143.722"/>
<g>
	<path fill="#FADE8D" d="M21.797,107.343c13.753,8.91,28.798,11.446,44.534,8.508c29.033-5.423,49.9-30.994,49.88-60.497
		c-0.003-2.182,0.642-3.58,2.291-5.043c2.957-2.624,5.559-5.647,8.312-8.503c-0.199-0.197-0.401-0.393-0.601-0.59
		c-3.29,0.917-6.58,1.835-9.873,2.755c3.443-3.35,6.228-6.791,7.61-11.471c-3.642,1.428-7.004,2.788-10.398,4.063
		c-2.037,0.765-3.629,0.478-5.543-1.106c-6.594-5.45-14.242-6.395-22.068-3.241c-7.656,3.085-12.2,9.002-13.213,17.303
		c-0.292,2.395-0.044,4.858-0.044,7.673c-18.1-1.42-32.627-9.073-44.488-22.862c-5.275,11.228-3.298,20.64,5.128,29.192
		c-2.681-0.778-5.363-1.559-8.314-2.416c0.606,10.72,6.007,17.538,15.531,21.756c-2.515,0-5.027,0-7.861,0
		c3.268,9.308,9.958,13.988,19.616,15.531C42.844,105.255,32.79,107.758,21.797,107.343z"/>
</g>
<polyline fill="#FADE8D" points="55.991,25.912 37.798,23.242 44.687,11.834 "/>
</svg>
